<svg xmlns="http://www.w3.org/2000/svg" viewBox="0 0 100 100">
  <defs>
    <linearGradient id="shieldBgIconApp" x1="0%" y1="0%" x2="100%" y2="100%">
      <stop offset="0%" stop-color="#FAFBFD" />
      <stop offset="100%" stop-color="#EBF8FF" />
    </linearGradient>
    <linearGradient id="tealGradIconApp" x1="0%" y1="0%" x2="100%" y2="100%">
      <stop offset="0%" stop-color="#319795" />
      <stop offset="100%" stop-color="#2C7A7B" />
    </linearGradient>
    <filter id="dropShadowIconApp" x="-10%" y="-10%" width="120%" height="120%">
      <feDropShadow dx="0" dy="2" stdDeviation="3" flood-color="#1A365D" flood-opacity="0.15" />
    </filter>
  </defs>
  <path d="M50,15 C65,15 78,21 80,32 C80,52 68,69 50,80 C32,69 20,52 20,32 C22,21 35,15 50,15 Z" fill="url(#shieldBgIconApp)" stroke="#1A365D" stroke-width="2.5" filter="url(#dropShadowIconApp)" />
  <path d="M30,35 Q50,22 70,35 T50,75 Z" fill="none" stroke="#8FA0B5" stroke-width="1.5" stroke-dasharray="3 3" opacity="0.7"/>
  <path d="M26,45 C26,45 42,65 50,65 C62,65 74,45 74,45" fill="none" stroke="#319795" stroke-width="1.5" opacity="0.6"/>
  <circle cx="50" cy="48" r="14" fill="#1A365D" filter="url(#dropShadowIconApp)" />
  <text x="50" y="52.5" text-anchor="middle" font-family="'Montserrat', 'Helvetica Neue', sans-serif" font-weight="800" font-size="13" fill="#FFFFFF">Ag</text>
  <circle cx="73" cy="32" r="7.5" fill="url(#tealGradIconApp)" stroke="#FFFFFF" stroke-width="1.5" filter="url(#dropShadowIconApp)" />
  <text x="73" y="35" text-anchor="middle" font-family="'Montserrat', 'Helvetica Neue', sans-serif" font-weight="850" font-size="8" fill="#FFFFFF">O₂</text>
</svg>
